<svg width="123" height="19" viewBox="0 0 123 19" fill="none"
    xmlns="http://www.w3.org/2000/svg">
    <path d="M1.18379 6H4.13379C4.87379 6 5.53046 6.14667 6.10379 6.44C6.67712 6.73333 7.12046 7.14667 7.43379 7.68C7.75379 8.20667 7.91379 8.81333 7.91379 9.5C7.91379 10.1867 7.75379 10.7967 7.43379 11.33C7.12046 11.8567 6.67712 12.2667 6.10379 12.56C5.53046 12.8533 4.87379 13 4.13379 13H1.18379V6ZM4.07379 12.13C4.64046 12.13 5.13712 12.02 5.56379 11.8C5.99712 11.58 6.33046 11.2733 6.56379 10.88C6.79712 10.48 6.91379 10.02 6.91379 9.5C6.91379 8.98 6.79712 8.52333 6.56379 8.13C6.33046 7.73 5.99712 7.42 5.56379 7.2C5.13712 6.98 4.64046 6.87 4.07379 6.87H2.18379V12.13H4.07379ZM14.0955 10.38C14.0955 10.4533 14.0888 10.55 14.0755 10.67H9.77551C9.83551 11.1367 10.0388 11.5133 10.3855 11.8C10.7388 12.08 11.1755 12.22 11.6955 12.22C12.3288 12.22 12.8388 12.0067 13.2255 11.58L13.7555 12.2C13.5155 12.48 13.2155 12.6933 12.8555 12.84C12.5022 12.9867 12.1055 13.06 11.6655 13.06C11.1055 13.06 10.6088 12.9467 10.1755 12.72C9.74217 12.4867 9.40551 12.1633 9.16551 11.75C8.93217 11.3367 8.81551 10.87 8.81551 10.35C8.81551 9.83667 8.92884 9.37333 9.15551 8.96C9.38884 8.54667 9.70551 8.22667 10.1055 8C10.5122 7.76667 10.9688 7.65 11.4755 7.65C11.9822 7.65 12.4322 7.76667 12.8255 8C13.2255 8.22667 13.5355 8.54667 13.7555 8.96C13.9822 9.37333 14.0955 9.84667 14.0955 10.38ZM11.4755 8.46C11.0155 8.46 10.6288 8.6 10.3155 8.88C10.0088 9.16 9.82884 9.52667 9.77551 9.98H13.1755C13.1222 9.53333 12.9388 9.17 12.6255 8.89C12.3188 8.60333 11.9355 8.46 11.4755 8.46ZM15.4286 5.58H16.3886V13H15.4286V5.58ZM18.2215 7.7H19.1815V13H18.2215V7.7ZM18.7015 6.68C18.5149 6.68 18.3582 6.62 18.2315 6.5C18.1115 6.38 18.0515 6.23333 18.0515 6.06C18.0515 5.88667 18.1115 5.74 18.2315 5.62C18.3582 5.49333 18.5149 5.43 18.7015 5.43C18.8882 5.43 19.0415 5.49 19.1615 5.61C19.2882 5.72333 19.3515 5.86667 19.3515 6.04C19.3515 6.22 19.2882 6.37333 19.1615 6.5C19.0415 6.62 18.8882 6.68 18.7015 6.68ZM25.7045 7.7L23.3845 13H22.4045L20.0845 7.7H21.0845L22.9045 11.95L24.7645 7.7H25.7045ZM31.2439 10.38C31.2439 10.4533 31.2373 10.55 31.2239 10.67H26.9239C26.9839 11.1367 27.1873 11.5133 27.5339 11.8C27.8873 12.08 28.3239 12.22 28.8439 12.22C29.4773 12.22 29.9873 12.0067 30.3739 11.58L30.9039 12.2C30.6639 12.48 30.3639 12.6933 30.0039 12.84C29.6506 12.9867 29.2539 13.06 28.8139 13.06C28.2539 13.06 27.7573 12.9467 27.3239 12.72C26.8906 12.4867 26.5539 12.1633 26.3139 11.75C26.0806 11.3367 25.9639 10.87 25.9639 10.35C25.9639 9.83667 26.0773 9.37333 26.3039 8.96C26.5373 8.54667 26.8539 8.22667 27.2539 8C27.6606 7.76667 28.1173 7.65 28.6239 7.65C29.1306 7.65 29.5806 7.76667 29.9739 8C30.3739 8.22667 30.6839 8.54667 30.9039 8.96C31.1306 9.37333 31.2439 9.84667 31.2439 10.38ZM28.6239 8.46C28.1639 8.46 27.7773 8.6 27.4639 8.88C27.1573 9.16 26.9773 9.52667 26.9239 9.98H30.3239C30.2706 9.53333 30.0873 9.17 29.7739 8.89C29.4673 8.60333 29.0839 8.46 28.6239 8.46ZM33.497 8.59C33.6637 8.28333 33.9103 8.05 34.237 7.89C34.5637 7.73 34.9603 7.65 35.427 7.65V8.58C35.3737 8.57333 35.3003 8.57 35.207 8.57C34.687 8.57 34.277 8.72667 33.977 9.04C33.6837 9.34667 33.537 9.78667 33.537 10.36V13H32.577V7.7H33.497V8.59ZM41.3514 10.38C41.3514 10.4533 41.3447 10.55 41.3314 10.67H37.0314C37.0914 11.1367 37.2947 11.5133 37.6414 11.8C37.9947 12.08 38.4314 12.22 38.9514 12.22C39.5847 12.22 40.0947 12.0067 40.4814 11.58L41.0114 12.2C40.7714 12.48 40.4714 12.6933 40.1114 12.84C39.758 12.9867 39.3614 13.06 38.9214 13.06C38.3614 13.06 37.8647 12.9467 37.4314 12.72C36.998 12.4867 36.6614 12.1633 36.4214 11.75C36.188 11.3367 36.0714 10.87 36.0714 10.35C36.0714 9.83667 36.1847 9.37333 36.4114 8.96C36.6447 8.54667 36.9614 8.22667 37.3614 8C37.768 7.76667 38.2247 7.65 38.7314 7.65C39.238 7.65 39.688 7.76667 40.0814 8C40.4814 8.22667 40.7914 8.54667 41.0114 8.96C41.238 9.37333 41.3514 9.84667 41.3514 10.38ZM38.7314 8.46C38.2714 8.46 37.8847 8.6 37.5714 8.88C37.2647 9.16 37.0847 9.52667 37.0314 9.98H40.4314C40.378 9.53333 40.1947 9.17 39.8814 8.89C39.5747 8.60333 39.1914 8.46 38.7314 8.46ZM47.6844 5.58V13H46.7644V12.16C46.5511 12.4533 46.2811 12.6767 45.9544 12.83C45.6277 12.9833 45.2677 13.06 44.8744 13.06C44.3611 13.06 43.9011 12.9467 43.4944 12.72C43.0877 12.4933 42.7677 12.1767 42.5344 11.77C42.3077 11.3567 42.1944 10.8833 42.1944 10.35C42.1944 9.81667 42.3077 9.34667 42.5344 8.94C42.7677 8.53333 43.0877 8.21667 43.4944 7.99C43.9011 7.76333 44.3611 7.65 44.8744 7.65C45.2544 7.65 45.6044 7.72333 45.9244 7.87C46.2444 8.01 46.5111 8.22 46.7244 8.5V5.58H47.6844ZM44.9544 12.22C45.2877 12.22 45.5911 12.1433 45.8644 11.99C46.1377 11.83 46.3511 11.61 46.5044 11.33C46.6577 11.0433 46.7344 10.7167 46.7344 10.35C46.7344 9.98333 46.6577 9.66 46.5044 9.38C46.3511 9.09333 46.1377 8.87333 45.8644 8.72C45.5911 8.56667 45.2877 8.49 44.9544 8.49C44.6144 8.49 44.3077 8.56667 44.0344 8.72C43.7677 8.87333 43.5544 9.09333 43.3944 9.38C43.2411 9.66 43.1644 9.98333 43.1644 10.35C43.1644 10.7167 43.2411 11.0433 43.3944 11.33C43.5544 11.61 43.7677 11.83 44.0344 11.99C44.3077 12.1433 44.6144 12.22 44.9544 12.22ZM54.9964 7.65C55.5097 7.65 55.9697 7.76333 56.3764 7.99C56.783 8.21667 57.0997 8.53333 57.3264 8.94C57.5597 9.34667 57.6764 9.81667 57.6764 10.35C57.6764 10.8833 57.5597 11.3567 57.3264 11.77C57.0997 12.1767 56.783 12.4933 56.3764 12.72C55.9697 12.9467 55.5097 13.06 54.9964 13.06C54.603 13.06 54.243 12.9833 53.9164 12.83C53.5897 12.6767 53.3197 12.4533 53.1064 12.16V13H52.1864V5.58H53.1464V8.5C53.3597 8.22 53.6264 8.01 53.9464 7.87C54.2664 7.72333 54.6164 7.65 54.9964 7.65ZM54.9164 12.22C55.2564 12.22 55.5597 12.1433 55.8264 11.99C56.0997 11.83 56.313 11.61 56.4664 11.33C56.6264 11.0433 56.7064 10.7167 56.7064 10.35C56.7064 9.98333 56.6264 9.66 56.4664 9.38C56.313 9.09333 56.0997 8.87333 55.8264 8.72C55.5597 8.56667 55.2564 8.49 54.9164 8.49C54.583 8.49 54.2797 8.56667 54.0064 8.72C53.733 8.87333 53.5197 9.09333 53.3664 9.38C53.213 9.66 53.1364 9.98333 53.1364 10.35C53.1364 10.7167 53.213 11.0433 53.3664 11.33C53.5197 11.61 53.733 11.83 54.0064 11.99C54.2797 12.1433 54.583 12.22 54.9164 12.22ZM63.5463 7.7L60.9763 13.53C60.7496 14.07 60.483 14.45 60.1763 14.67C59.8763 14.89 59.513 15 59.0863 15C58.8263 15 58.573 14.9567 58.3263 14.87C58.0863 14.79 57.8863 14.67 57.7263 14.51L58.1363 13.79C58.4096 14.05 58.7263 14.18 59.0863 14.18C59.3196 14.18 59.513 14.1167 59.6663 13.99C59.8263 13.87 59.9696 13.66 60.0963 13.36L60.2663 12.99L57.9263 7.7H58.9263L60.7763 11.94L62.6063 7.7H63.5463ZM64.7406 9.02C64.5539 9.02 64.3939 8.95667 64.2606 8.83C64.1273 8.69667 64.0606 8.53 64.0606 8.33C64.0606 8.13667 64.1273 7.97667 64.2606 7.85C64.3939 7.71667 64.5539 7.65 64.7406 7.65C64.9273 7.65 65.0839 7.71333 65.2106 7.84C65.3373 7.96667 65.4006 8.13 65.4006 8.33C65.4006 8.53 65.3339 8.69667 65.2006 8.83C65.0739 8.95667 64.9206 9.02 64.7406 9.02ZM64.7406 13.06C64.5539 13.06 64.3939 12.9967 64.2606 12.87C64.1273 12.7367 64.0606 12.57 64.0606 12.37C64.0606 12.1767 64.1273 12.0167 64.2606 11.89C64.3939 11.7567 64.5539 11.69 64.7406 11.69C64.9273 11.69 65.0839 11.7533 65.2106 11.88C65.3373 12.0067 65.4006 12.17 65.4006 12.37C65.4006 12.57 65.3339 12.7367 65.2006 12.87C65.0739 12.9967 64.9206 13.06 64.7406 13.06Z" fill="#AFA7AE"/>
    <path fill-rule="evenodd" clip-rule="evenodd" d="M121.865 14.9997H120.359V12.4902H122.869V13.9957C122.869 14.5498 122.419 14.9997 121.865 14.9997ZM119.356 13.9957V14.9976L114.588 14.9997C113.065 14.9997 111.828 13.7628 111.828 12.2395V6.71917C111.828 5.19546 113.065 3.95898 114.588 3.95898H120.109C121.632 3.95898 122.869 5.19546 122.869 6.71917V11.4849H121.865V7.00428C121.865 5.75761 121.07 4.96261 119.824 4.96261H114.873C113.627 4.96261 112.832 5.75761 112.832 7.00428V11.9544C112.832 13.2007 113.627 13.9957 114.873 13.9957H119.356Z" fill="#AFA7AE"/>
    <path fill-rule="evenodd" clip-rule="evenodd" d="M102.451 3.96138L107.219 3.95926C108.742 3.95926 109.979 5.19615 109.979 6.71944V12.2398C109.979 13.7635 108.742 15 107.219 15H101.698C100.175 15 98.9378 13.7635 98.9378 12.2398V0.000409431H99.9414V11.9547C99.9414 13.2014 100.737 13.9964 101.983 13.9964H106.933C108.18 13.9964 108.975 13.2014 108.975 11.9547V7.00455C108.975 5.7583 108.18 4.96331 106.933 4.96331H102.451V3.96138Z" fill="#AFA7AE"/>
    <path fill-rule="evenodd" clip-rule="evenodd" d="M97.0886 14.9976L88.8076 14.9997C87.2843 14.9997 86.0479 13.7628 86.0479 12.2395V6.71917C86.0479 5.19546 87.2843 3.95898 88.8076 3.95898H94.3284C95.8517 3.95898 97.0886 5.19546 97.0886 6.71917V11.4849H89.5605V10.4821H96.085V7.00428C96.085 5.75761 95.2895 4.96261 94.0433 4.96261H89.0931C87.8465 4.96261 87.0515 5.75761 87.0515 7.00428V11.9544C87.0515 13.2007 87.8465 13.9957 89.0931 13.9957H97.0886V14.9976Z" fill="#AFA7AE"/>
    <path fill-rule="evenodd" clip-rule="evenodd" d="M81.438 14.9997H81.0416V13.9906H81.2587C82.4544 13.9387 83.1929 13.1675 83.1946 11.9544V3.95898H84.1965L84.1982 12.2395C84.1982 13.7628 82.9617 14.9997 81.438 14.9997ZM74.0039 3.95898V11.9544C74.0056 13.1675 74.7441 13.9387 75.9402 13.9906L75.7604 14.9997C74.2367 14.9997 73 13.7628 73 12.2395L73.0019 3.95898H74.0039ZM78.5992 14.9997H75.7604L75.9402 13.9906H77.5956L77.5952 10.4821H78.5971L78.5992 14.9997Z" fill="#AFA7AE"/>
</svg>
